<svg id="Calque_1" data-name="Calque 1" xmlns="http://www.w3.org/2000/svg" xmlns:xlink="http://www.w3.org/1999/xlink" viewBox="0 0 600 600"><defs><style>.cls-1{fill:none;}.cls-2{fill:#fff;}.cls-3{fill:#106b9f;}.cls-4{clip-path:url(#clip-path);}.cls-5{fill:#f0edee;}</style><clipPath id="clip-path" transform="translate(50 50)"><rect class="cls-1" x="105.07" y="288" width="290" height="136"/></clipPath></defs><rect class="cls-2" width="600" height="600"/><rect class="cls-2" width="600" height="600"/><rect class="cls-3" width="600" height="600"/><g class="cls-4"><path class="cls-5" d="M301.32,289.31a89.5,89.5,0,0,1-109.54.88,103.27,103.27,0,0,0-86.71,101.87c0,57,46.26,19.95,103.32,19.95h83.35c57.07,0,103.33,37.06,103.33-19.95A103.26,103.26,0,0,0,301.32,289.31Z" transform="translate(50 50)"/></g><path class="cls-5" d="M246,296.46a77.56,77.56,0,1,0-77.63-77.55A77.68,77.68,0,0,0,246,296.46Z" transform="translate(50 50)"/></svg>